<?xml version="1.0" standalone="no"?>
<!DOCTYPE svg PUBLIC "-//W3C//DTD SVG 1.1//EN" "http://www.w3.org/Graphics/SVG/1.1/DTD/svg11.dtd">
<svg xmlns="http://www.w3.org/2000/svg" height="414" version="1.0" viewBox="0 0 774 414" width="774">
  <g font-family="Helvetica" font-size="48pt" stroke-linecap="round">
    <g stroke="#000000" stroke-width="4">
      <line x1="328" x2="236.4" y1="321.6" y2="374.6"/>
      <line x1="304.5" x2="235.8" y1="307.5" y2="347.2"/>
          <line x1="448" x2="511.3" y1="179.5" y2="216"/>
          <line x1="594.9" x2="594.9" y1="163.1" y2="80"/>
      <line x1="610.9" x2="610.9" y1="163.1" y2="80"/>
          <line x1="144.8" x2="236.4" y1="321.6" y2="374.6"/>
          <line x1="144.8" x2="92" y1="321.6" y2="352.1"/>
          <line x1="328" x2="388" y1="216" y2="181.4"/>
          <line x1="328" x2="328" y1="216" y2="321.6"/>
          <line x1="511.3" x2="602.9" y1="216" y2="163.1"/>
          <line x1="602.9" x2="664" y1="163.1" y2="198.4"/>
          <line x1="328" x2="392" y1="321.6" y2="358.6"/>
          <line x1="236.4" x2="328" y1="163.1" y2="216"/>
      <line x1="235.8" x2="304.5" y1="190.5" y2="230.2"/>
          <line x1="144.8" x2="144.8" y1="216" y2="321.6"/>
      <line x1="168.8" x2="168.8" y1="229.2" y2="308.4"/>
          <line x1="144.8" x2="236.4" y1="216" y2="163.1"/>
    </g>
    <text fill="#000000" x="669.2" y="232.1">OH</text>
    <text fill="#000000" x="577.2" y="73.3">O</text>
    <text fill="#000000" x="393.2" y="179.1">O</text>
    <text fill="#000000" x="397.2" y="390.5">Cl</text>
    <text fill="#000000" x="29.2" y="390.5">Cl</text>
  </g>
</svg>